# xmcd
#
# Track frame offsets:
#	150
#	12617
#	24925
#	40178
#	52029
#	63438
#	79935
#	92886
#	107742
#	120340
#
# Disc length: 1809 seconds
#
# Revision: 0
# Processed by: cddbd v1.4PL0 Copyright (c) Steve Scherf et al.
# Submitted via: dBpowerAMP V4.0
#
DISCID=7c070f0a
DTITLE=Robb Herr - After Ours
DYEAR=1998
DGENRE=Country
TTITLE0=Hard Work Never Killed Nobody
TTITLE1=I'm Goin' Two Steppin' Tonight
TTITLE2=I'm Turning Blue
TTITLE3=I Could Get Used To This
TTITLE4=Money Talks
TTITLE5=Hienz "57"
TTITLE6=After Ours
TTITLE7=This Ain't No Way To Live
TTITLE8=Too Good Memory (For One Bad Thing)
TTITLE9=Get To Me By Heart
EXTD=
EXTT0=
EXTT1=
EXTT2=
EXTT3=
EXTT4=
EXTT5=
EXTT6=
EXTT7=
EXTT8=
EXTT9=
PLAYORDER=
